<svg xmlns="http://www.w3.org/2000/svg" width="991.557" height="1001.145" viewBox="0 0 991.557 1001.145">
    <path fill="#23CFCE"
          d="M546.634 428.367l.604-5.296-6.703-.743-6.726-.671-.49 5.31 6.653.664 6.662.736zm19.91 2.29l.574-5.299-13.337-1.527-.621 5.296 13.384 1.53zm20.057 1.802l.353-5.319s-3.33-.219-6.658-.5l-6.659-.606-.521 5.307 6.734.611c3.371.284 6.751.507 6.751.507zm20.187.712l.012-5.331s-3.33-.003-6.661-.089c-3.331-.081-6.661-.241-6.661-.241l-.249 5.325s3.386.161 6.776.243c2.26.057 4.522.086 6.783.093zm20.197-.657l-.35-5.319-2.068.125-4.597.229c-3.325.155-6.655.227-6.655.227l.117 5.33s3.395-.071 6.787-.232l4.638-.229c1.277-.08 2.128-.131 2.128-.131zm20.164-2.383l-.9-5.254s-3.268.567-6.556 1.005c-3.285.453-6.585.774-6.585.774l.53 5.306s3.394-.333 6.771-.8c3.38-.447 6.74-1.032 6.74-1.031zm19.799-4.472l-1.44-5.132s-3.19.905-6.414 1.684c-3.222.794-6.471 1.459-6.471 1.459l1.08 5.22s3.343-.686 6.65-1.5c3.316-.799 6.595-1.731 6.595-1.731zm19.237-6.503l-1.967-4.955s-3.081 1.23-6.207 2.339c-3.121 1.123-6.284 2.122-6.284 2.123l1.617 5.079s3.252-1.025 6.46-2.183c3.214-1.136 6.38-2.403 6.381-2.403zm18.455-8.453l-2.467-4.726s-2.938 1.542-5.936 2.966c-2.987 1.44-6.03 2.761-6.03 2.762l2.136 4.887s3.127-1.358 6.198-2.838c3.08-1.466 6.099-3.052 6.099-3.051zm17.485-10.307l-2.938-4.446s-2.763 1.836-5.598 3.562a205.735 205.735 0 0 1-5.717 3.368l2.626 4.639s2.973-1.674 5.874-3.461a198.958 198.958 0 0 0 5.753-3.662zm16.335-12.053l-3.383-4.121s-2.558 2.109-5.197 4.117c-2.634 2.019-5.339 3.936-5.339 3.936l3.09 4.344s2.779-1.971 5.484-4.045c2.716-2.062 5.345-4.232 5.345-4.231zm15.007-13.671l-3.788-3.75s-2.326 2.363-4.748 4.632c-2.411 2.276-4.906 4.465-4.905 4.465l3.52 4.003s2.563-2.247 5.043-4.589c2.485-2.331 4.878-4.761 4.878-4.761zm13.517-15.151l-4.156-3.338s-2.068 2.591-4.24 5.098c-2.163 2.516-4.419 4.946-4.419 4.946l3.912 3.619s2.319-2.5 4.542-5.084a194.9 194.9 0 0 0 4.361-5.241zm11.87-16.464l-4.48-2.888s-1.786 2.792-3.688 5.509c-1.89 2.725-3.881 5.377-3.881 5.377l4.268 3.194s2.047-2.729 3.989-5.528c1.953-2.793 3.792-5.664 3.792-5.664zm10.096-17.619l-4.757-2.405s-1.488 2.964-3.098 5.864c-1.597 2.908-3.301 5.753-3.301 5.753l4.576 2.733s1.753-2.925 3.395-5.916c1.657-2.981 3.185-6.029 3.185-6.029zm8.202-18.573l-4.98-1.896s-1.175 3.103-2.47 6.156a185.992 185.992 0 0 1-2.681 6.064l4.837 2.241s1.439-3.091 2.756-6.237c1.332-3.138 2.538-6.328 2.538-6.328zm6.231-19.318l-5.151-1.371s-.852 3.205-1.815 6.379c-.955 3.177-2.038 6.312-2.038 6.312l5.044 1.727s1.111-3.224 2.095-6.488a230.76 230.76 0 0 0 1.865-6.559zm4.213-19.856l-5.266-.84s-.521 3.275-1.154 6.532c-.629 3.257-1.381 6.487-1.381 6.487l5.193 1.197s.771-3.319 1.418-6.667c.434-2.228.83-4.466 1.19-6.709zm2.168-20.181l-5.322-.296s-.178 3.312-.48 6.615c-.291 3.306-.709 6.597-.709 6.597l5.288.662s.432-3.382.729-6.778c.311-3.396.494-6.8.494-6.8zm.07-20.305l-5.323.259s.173 3.312.209 6.629c.055 3.315-.027 6.632-.027 6.632l5.329.112s.084-3.408.028-6.817c-.038-3.41-.216-6.815-.216-6.815zm-2.043-20.195l-5.269.812s.508 3.277.896 6.57c.396 3.292.663 6.597.663 6.597l5.312-.439s-.276-3.398-.684-6.783c-.396-3.388-.918-6.757-.918-6.757zm-4.138-19.881l-5.155 1.356s.854 3.205 1.577 6.442a199.8 199.8 0 0 1 1.353 6.492l5.235-.992s-.629-3.353-1.389-6.677c-.743-3.324-1.621-6.621-1.621-6.621zm-6.18-19.337l-4.986 1.885s1.174 3.103 2.235 6.244a204.177 204.177 0 0 1 2.017 6.318l5.105-1.531s-.977-3.269-2.073-6.496a217.792 217.792 0 0 0-2.298-6.42zm-8.144-18.593l-4.766 2.388c-.001 0 1.495 2.961 2.869 5.979a188.079 188.079 0 0 1 2.659 6.077l4.92-2.052c-.001 0-1.307-3.15-2.733-6.247-1.413-3.101-2.95-6.145-2.949-6.145zm-10.02-17.655l-4.495 2.866s1.789 2.793 3.469 5.651a206.763 206.763 0 0 1 3.271 5.77l4.682-2.548s-1.628-2.995-3.362-5.931c-1.727-2.937-3.565-5.808-3.565-5.808zm-11.779-16.532l-4.176 3.312s2.064 2.597 4.031 5.269c1.977 2.664 3.847 5.403 3.848 5.403l4.396-3.018s-1.924-2.815-3.954-5.554c-2.023-2.743-4.145-5.412-4.145-5.412zm-13.422-15.233l-3.812 3.727a189.645 189.645 0 0 0 8.938 9.801l4.062-3.452c-.001 0-2.204-2.603-4.508-5.116-2.288-2.529-4.68-4.96-4.68-4.96zm-14.916-13.762l-3.407 4.101s2.555 2.116 5.025 4.326a209.332 209.332 0 0 1 4.872 4.499l3.684-3.853s-2.461-2.359-5.009-4.625a209.994 209.994 0 0 0-5.165-4.448zm-16.269-12.152l-2.964 4.434s2.764 1.836 5.447 3.781c2.698 1.931 5.312 3.973 5.312 3.972l3.265-4.214s-2.688-2.1-5.461-4.083a192.014 192.014 0 0 0-5.599-3.89zm-17.445-10.386l-2.485 4.716s2.938 1.543 5.812 3.194a210.065 210.065 0 0 1 5.697 3.396l2.809-4.53s-2.896-1.799-5.857-3.49c-2.958-1.7-5.976-3.286-5.976-3.286zm-18.429-8.512l-1.98 4.948a185.86 185.86 0 0 0 12.135 5.353l2.321-4.798s-3.064-1.495-6.188-2.863a188.562 188.562 0 0 0-6.288-2.64zm-19.217-6.557l-1.456 5.127s3.191.9 6.347 1.926a195.104 195.104 0 0 1 6.273 2.145l1.812-5.014s-3.204-1.165-6.451-2.203c-3.242-1.055-6.525-1.98-6.525-1.981zm-19.78-4.541l-.929 5.25a197.452 197.452 0 0 0 12.981 2.754l1.283-5.175s-3.311-.823-6.646-1.526c-3.333-.714-6.689-1.303-6.689-1.303zm-20.147-2.501l-.384 5.316s3.31.236 6.606.594c3.298.352 6.581.82 6.581.82l.75-5.277s-3.375-.48-6.766-.843a219.49 219.49 0 0 0-6.787-.61zm-20.292-.409l.169 5.328s3.314-.11 6.631-.096c3.315.006 6.631.136 6.631.136l.2-5.327s-3.404-.133-6.813-.14c-3.411-.014-6.818.099-6.818.099zm-20.236 1.703l.725 5.28s3.285-.46 6.585-.787c3.299-.344 6.609-.552 6.609-.552l-.354-5.318s-3.404.214-6.796.566a193.6 193.6 0 0 0-6.769.811zm-19.943 3.805l1.271 5.177s3.223-.793 6.47-1.467c3.245-.682 6.516-1.24 6.516-1.24l-.904-5.253s-3.36.575-6.697 1.274c-3.345.692-6.656 1.509-6.656 1.509zm-19.438 5.851l1.803 5.019s3.117-1.129 6.278-2.132c3.157-1.02 6.354-1.909 6.354-1.909l-1.446-5.131s-3.285.916-6.53 1.963c-3.252 1.03-6.459 2.191-6.459 2.19zm-18.727 7.838l2.309 4.806s2.987-1.441 6.026-2.77a212.675 212.675 0 0 1 6.118-2.558l-1.972-4.953s-3.168 1.258-6.287 2.629c-3.124 1.365-6.194 2.846-6.194 2.846zm-17.82 9.721l2.791 4.542s2.824-1.739 5.711-3.374c2.881-1.646 5.824-3.174 5.824-3.175l-2.471-4.725s-3.025 1.572-5.986 3.264c-2.966 1.68-5.869 3.468-5.869 3.468zm-16.725 11.508l3.243 4.229s2.625-2.025 5.333-3.943a192.471 192.471 0 0 1 5.465-3.758l-2.942-4.443s-2.846 1.878-5.618 3.861a189.855 189.855 0 0 0-5.481 4.054zm-15.449 13.16l3.661 3.875s2.408-2.28 4.896-4.471c2.485-2.196 5.052-4.3 5.052-4.3l-3.386-4.119s-2.636 2.161-5.188 4.418c-2.56 2.253-5.035 4.597-5.035 4.597zm-14.019 14.689l4.042 3.476s2.157-2.521 4.412-4.953c2.24-2.444 4.58-4.796 4.58-4.797l-3.79-3.748s-2.405 2.417-4.71 4.932a200.13 200.13 0 0 0-4.534 5.09zm-12.415 16.063l4.382 3.037s1.884-2.729 3.873-5.384c1.979-2.66 4.058-5.246 4.058-5.246l-4.158-3.335s-2.135 2.658-4.172 5.394c-2.046 2.727-3.982 5.534-3.983 5.534zm-10.683 17.263l4.673 2.563s1.592-2.911 3.294-5.757c1.688-2.854 3.492-5.639 3.491-5.639l-4.48-2.885s-1.854 2.861-3.592 5.797a207.357 207.357 0 0 0-3.386 5.921zm-8.82 18.288l4.915 2.062s1.278-3.061 2.674-6.067c1.387-3.013 2.883-5.972 2.883-5.972l-4.76-2.401s-1.537 3.043-2.964 6.14c-1.433 3.092-2.748 6.238-2.748 6.238zm-6.874 19.101l5.104 1.542s.95-3.179 2.027-6.314c1.061-3.144 2.249-6.24 2.249-6.24l-4.983-1.895s-1.221 3.185-2.312 6.415a187.05 187.05 0 0 0-2.085 6.492zm-4.869 19.707l5.232 1.013s.619-3.26 1.369-6.49a189.55 189.55 0 0 1 1.595-6.438l-5.149-1.368s-.887 3.292-1.641 6.616c-.77 3.319-1.406 6.667-1.406 6.667zm-2.835 20.095l5.31.473s.287-3.305.703-6.596c.398-3.292.927-6.566.927-6.566l-5.265-.837s-.542 3.364-.953 6.749c-.28 2.254-.519 4.514-.722 6.777zm-.746 20.292l5.33-.081s-.059-3.315.015-6.633c.062-3.315.248-6.628.248-6.628l-5.323-.291s-.189 3.403-.254 6.813c-.076 3.411-.016 6.82-.016 6.82zm1.366 20.257l5.292-.637s-.4-3.292-.677-6.599c-.284-3.305-.441-6.618-.441-6.618l-5.324.265s.163 3.406.456 6.805c.283 3.398.694 6.784.694 6.784zm3.469 20.002l5.196-1.184s-.741-3.232-1.359-6.492c-.627-3.257-1.13-6.534-1.13-6.534l-5.27.816s.519 3.37 1.162 6.719a210.85 210.85 0 0 0 1.401 6.675zm5.224 19.493l5.121-1.479-.572-2.002a304.64 304.64 0 0 1-1.214-4.455l-1.271-4.433-.539-2.001-5.154 1.359.554 2.058 1.277 4.45 1.217 4.463.581 2.04zm6.217 19.208l5.022-1.787s-1.125-3.146-2.185-6.311c-1.066-3.161-2.058-6.345-2.058-6.345l-5.087 1.591s1.007 3.239 2.091 6.449a396.505 396.505 0 0 0 2.217 6.403zm7.13 18.818l4.956-1.962-2.443-6.24-2.377-6.255-4.995 1.863 2.399 6.315 2.46 6.279zm7.398 18.592l4.964-1.94-4.975-12.511-4.949 1.979 4.96 12.472zm6.278 18.553l5.207-1.149s-.784-3.408-1.851-6.707a100.558 100.558 0 0 0-1.553-4.484l-.742-1.979-4.986 1.885.732 1.955a98.796 98.796 0 0 1 1.469 4.242c1 3.094 1.723 6.237 1.724 6.237zm1.876 19.102l5.338.339s.167-3.482-.041-6.964c-.171-3.48-.695-6.931-.695-6.931l-5.295.664s.488 3.198.65 6.43c.194 3.23.043 6.462.043 6.462zm-3.631 18.834l5.046 1.801s1.182-3.28 1.989-6.673c.847-3.382 1.313-6.838 1.313-6.838l-5.289-.829s-.433 3.208-1.216 6.348c-.748 3.146-1.844 6.191-1.843 6.191zm-8.896 17.007l4.355 3.121s2.036-2.83 3.78-5.846c1.774-3 3.229-6.168 3.229-6.168l-4.86-2.256s-1.35 2.938-2.996 5.724c-1.619 2.799-3.508 5.425-3.508 5.425zm-13.241 13.895l3.328 4.2s2.744-2.152 5.247-4.578c2.526-2.401 4.798-5.047 4.798-5.047l-4.051-3.508s-2.108 2.454-4.453 4.685c-2.322 2.251-4.869 4.248-4.869 4.248zm-16.631 9.563l2.039 4.948s3.254-1.255 6.349-2.859c3.112-1.568 6.029-3.48 6.029-3.479l-2.929-4.486s-2.708 1.773-5.598 3.229c-2.869 1.484-5.89 2.647-5.89 2.647zm-18.688 4.352l.589 5.302s3.475-.301 6.897-.948c3.434-.609 6.782-1.58 6.782-1.579l-1.575-5.107s-3.107.896-6.293 1.459c-3.176.594-6.4.872-6.4.873zm-19.368-.497l-.608 5.296 2.114.231c1.265.135 2.971.304 4.702.415 3.439.244 6.938.199 6.938.2l-.097-5.331s-3.224.042-6.487-.188c-1.62-.105-3.26-.269-4.501-.398l-2.061-.225zm-19.702-2.867l-.832 5.266 6.646 1.051 6.688.998.744-5.278-6.61-.987-6.636-1.05zm-19.999-2.713l-.521 5.305s3.302.322 6.604.753c3.303.422 6.606.921 6.606.921l.784-5.271s-3.345-.504-6.713-.938c-3.367-.439-6.76-.77-6.76-.77zm-20.346-.777l.153 5.328s3.297-.104 6.601-.033c3.302.057 6.604.268 6.604.268l.326-5.321s-3.41-.218-6.834-.275c-3.423-.074-6.85.033-6.85.033zm-20.299 2.066l.919 5.25s3.251-.577 6.524-.983c3.271-.421 6.562-.667 6.562-.667l-.407-5.313s-3.421.255-6.822.691a149.586 149.586 0 0 0-6.776 1.022zm-19.79 4.403l1.396 5.145s3.19-.877 6.42-1.605c1.603-.361 3.246-.709 4.493-.962l2.059-.469-1.154-5.204-2.037.465c-1.224.247-2.869.595-4.548.976-3.334.747-6.629 1.654-6.629 1.654zm-19.273 6.491l2 4.941s3.064-1.249 6.183-2.359c3.113-1.12 6.271-2.108 6.271-2.108l-1.598-5.086s-3.26 1.021-6.476 2.178a172.46 172.46 0 0 0-6.38 2.434zm-18.368 8.751l2.578 4.666s2.896-1.604 5.855-3.083c2.956-1.487 5.978-2.844 5.978-2.844l-2.193-4.857s-3.119 1.397-6.17 2.938a186.844 186.844 0 0 0-6.048 3.18zm-17.182 10.894l3.119 4.32s2.677-1.947 5.442-3.766c2.755-1.835 5.591-3.542 5.591-3.542l-2.761-4.561c0 .001-2.929 1.763-5.773 3.655a168.102 168.102 0 0 0-5.618 3.894zm-15.742 12.885l3.62 3.913s2.427-2.25 4.947-4.395c2.517-2.149 5.123-4.188 5.123-4.188l-3.29-4.194s-2.691 2.105-5.291 4.326c-2.603 2.214-5.109 4.538-5.109 4.538zm-14.07 14.7l4.067 3.444s2.127-2.533 4.376-4.963c2.231-2.44 4.578-4.774 4.577-4.774l-3.772-3.768s-2.423 2.411-4.729 4.936a162.835 162.835 0 0 0-4.519 5.125zm-12.186 16.291l4.453 2.929s1.815-2.768 3.75-5.453c1.925-2.69 3.967-5.297 3.967-5.297l-4.202-3.28s-2.108 2.689-4.096 5.473a174.704 174.704 0 0 0-3.872 5.628zm-10.141 17.635l4.771 2.378s1.477-2.963 3.071-5.863c1.592-2.9 3.301-5.734 3.301-5.734l-4.565-2.751s-1.766 2.926-3.407 5.922a184.823 184.823 0 0 0-3.171 6.048zm-7.976 18.707l5.021 1.794s1.105-3.119 2.353-6.185c1.229-3.072 2.6-6.086 2.6-6.086l-4.86-2.191s-1.411 3.11-2.682 6.282a167.94 167.94 0 0 0-2.432 6.386zm-5.679 19.541l5.2 1.175s.727-3.229 1.587-6.425a168.612 168.612 0 0 1 1.852-6.354l-5.087-1.594s-1.027 3.262-1.911 6.562c-.891 3.301-1.641 6.636-1.641 6.636zm-3.27 20.081l5.304.536s.322-3.294.8-6.569a178.84 178.84 0 0 1 1.067-6.529l-5.242-.967s-.625 3.36-1.104 6.745a166.255 166.255 0 0 0-.825 6.784zm-.817 20.327l5.33-.108s-.079-3.31.001-6.617c.062-3.31.269-6.611.269-6.611l-5.32-.323s-.214 3.411-.277 6.828c-.085 3.414-.003 6.831-.003 6.831zm1.643 20.28l5.276-.75s-.476-3.274-.795-6.568c-.339-3.291-.531-6.595-.531-6.595l-5.32.318s.197 3.411.549 6.812c.33 3.4.821 6.783.821 6.783zm4.063 19.932l5.15-1.376s-.865-3.195-1.577-6.428a172.373 172.373 0 0 1-1.319-6.486l-5.243.957s.606 3.363 1.361 6.696c.497 2.223 1.04 4.436 1.628 6.637zm6.418 19.305l4.949-1.979s-1.241-3.069-2.335-6.192c-1.111-3.118-2.084-6.281-2.085-6.281l-5.093 1.577s1.006 3.269 2.151 6.484a170.86 170.86 0 0 0 2.413 6.391zm8.678 18.394l4.676-2.562s-1.6-2.896-3.06-5.866a176.128 176.128 0 0 1-2.819-5.984l-4.866 2.174s1.389 3.122 2.911 6.181c1.011 2.04 2.064 4.06 3.158 6.057zm10.828 17.227l4.334-3.104s-1.937-2.687-3.743-5.458a178.898 178.898 0 0 1-3.519-5.605l-4.57 2.743s1.753 2.934 3.633 5.788a163.144 163.144 0 0 0 3.865 5.636zm12.824 15.795l3.928-3.604s-2.247-2.433-4.373-4.967c-2.142-2.523-4.168-5.142-4.169-5.142l-4.207 3.273s2.094 2.702 4.305 5.309a159.353 159.353 0 0 0 4.516 5.131zm14.642 14.124l3.461-4.054s-2.522-2.143-4.942-4.399a162.766 162.766 0 0 1-4.762-4.596l-3.779 3.758a167.456 167.456 0 0 0 10.022 9.291zm16.246 12.249l2.946-4.439s-2.761-1.825-5.438-3.77c-2.688-1.929-5.281-3.982-5.281-3.982l-3.298 4.188s2.679 2.123 5.455 4.114a180.854 180.854 0 0 0 5.616 3.889zm17.591 10.213l2.396-4.761c0-.001-2.963-1.479-5.853-3.096-2.896-1.604-5.723-3.325-5.723-3.325l-2.77 4.555s2.918 1.779 5.907 3.435a168.257 168.257 0 0 0 6.043 3.192zm18.671 8.068l1.821-5.01s-3.113-1.125-6.175-2.387c-3.065-1.248-6.074-2.63-6.074-2.63l-2.213 4.852s3.104 1.425 6.27 2.713c3.157 1.3 6.371 2.462 6.371 2.462zm19.499 5.788l1.205-5.193s-3.226-.74-6.413-1.626a167.626 167.626 0 0 1-6.342-1.887l-1.623 5.078s3.252 1.047 6.549 1.947c3.293.915 6.624 1.68 6.624 1.681zm20.069 3.382l.562-5.301s-3.292-.342-6.562-.834a167.47 167.47 0 0 1-6.523-1.104l-.996 5.237s3.356.646 6.739 1.139c3.379.509 6.78.863 6.78.863zm20.328.905l-.09-5.329s-3.31.062-6.616-.025c-3.308-.07-6.609-.297-6.609-.297l-.35 5.319s3.411.23 6.829.307c3.418.089 6.836.025 6.836.025zm20.252-1.477l-.654-5.291s-3.294.414-6.601.707c-3.305.311-6.618.49-6.618.49l.304 5.322s3.402-.188 6.796-.503c3.394-.301 6.773-.725 6.773-.725zm19.984-3.442l-1.147-5.205s-3.243.721-6.508 1.331c-3.262.622-6.543 1.127-6.543 1.127l.821 5.268s3.365-.519 6.709-1.155a235.764 235.764 0 0 0 6.668-1.366zm19.57-5.234l-1.598-5.085s-3.171 1.001-6.371 1.902c-3.197.91-6.423 1.717-6.423 1.717l1.302 5.169s3.301-.825 6.572-1.757a248.904 248.904 0 0 0 6.518-1.946zm19.049-6.842l-1.997-4.942s-3.084 1.253-6.202 2.414c-3.115 1.171-6.263 2.248-6.263 2.248l1.733 5.041s3.217-1.102 6.396-2.297a266.63 266.63 0 0 0 6.333-2.464zm18.455-8.242l-2.34-4.79s-2.992 1.469-6.021 2.858c-3.022 1.396-6.08 2.717-6.08 2.717l2.114 4.893s3.117-1.344 6.197-2.769c3.086-1.415 6.13-2.909 6.13-2.909zm17.162-9.028l-1.253-5.396-6.105 3.367c-3.062 1.665-6.16 3.261-6.16 3.261l2.137 4.896s2.876-1.478 5.719-3.015c2.843-1.529 5.662-3.115 5.662-3.113zm16.731-9.527l.055-5.85-1.909.988c-1.14.604-2.649 1.433-4.158 2.271-3.019 1.691-6.037 3.388-6.037 3.388l.816 5.6 5.595-3.235 3.862-2.199 1.776-.963zm18.547-4.305l1.364-5.856s-3.466-.157-6.892.317a40.079 40.079 0 0 0-4.657.889c-.695.175-1.388.371-2.071.588l-.479 5.896s.764-.266 1.936-.581a37.34 37.34 0 0 1 4.353-.891c3.202-.485 6.445-.362 6.446-.362zm18.612 4.453l2.649-5.47s-3.166-1.402-6.47-2.43c-3.292-1.069-6.704-1.672-6.704-1.673l-1.799 5.771c0 .001 3.19.549 6.271 1.542 3.092.952 6.053 2.261 6.053 2.26zm16.175 10.25l3.781-4.757c-.001 0-2.49-2.412-5.329-4.396-2.806-2.031-5.894-3.609-5.893-3.609l-3.044 5.271s2.889 1.471 5.509 3.372c2.655 1.856 4.974 4.119 4.976 4.119zm10.337 16.042l4.643-3.744c-.001 0-1.177-3.255-2.871-6.271-1.648-3.04-3.796-5.764-3.795-5.764l-4.103 4.452s1.989 2.562 3.506 5.424c1.557 2.841 2.619 5.903 2.62 5.903zm2.884 18.938l5.146-2.524-.099-2.156c-.071-1.292-.141-3.016-.312-4.729-.305-3.438-1.073-6.804-1.073-6.804l-4.851 3.362s.677 3.168.904 6.396c.134 1.609.171 3.227.219 4.438l.066 2.017zm.428 19.254l5.295-1.076-.348-13.921-5.234 2.071.118 6.464.169 6.462zm1.444 19.744l5.292-.64s-.4-3.29-.68-6.599a200.872 200.872 0 0 1-.343-4.598l-.129-2.171-5.308.58.122 2.021a202.873 202.873 0 0 0 1.046 11.407zm3.59 20.023l5.177-1.271s-.777-3.194-1.417-6.453c-.65-3.246-1.162-6.52-1.163-6.52l-5.265.833s.525 3.375 1.199 6.726c.445 2.237.936 4.467 1.469 6.685zm6.463 19.4l4.904-2.088s-1.301-3.023-2.411-6.123a119.497 119.497 0 0 1-2.076-6.244l-5.103 1.544s.979 3.294 2.168 6.521a125.722 125.722 0 0 0 2.518 6.39zm9.507 18.101l4.502-2.854s-1.77-2.775-3.369-5.651c-1.614-2.867-3.059-5.829-3.059-5.827l-4.786 2.347s1.505 3.09 3.191 6.085a132.24 132.24 0 0 0 3.521 5.9zm12.322 16.327l3.979-3.549s-2.197-2.449-4.241-5.029a119.754 119.754 0 0 1-3.961-5.254l-4.345 3.092a126.623 126.623 0 0 0 8.568 10.74zm14.816 14.091l3.347-4.147c0-.001-2.567-2.062-5.007-4.271a127.488 127.488 0 0 1-4.767-4.535l-3.778 3.759s2.418 2.441 4.977 4.737a130.578 130.578 0 0 0 5.228 4.457zm16.903 11.508l2.639-4.633s-2.867-1.622-5.635-3.408c-2.773-1.771-5.438-3.705-5.438-3.705l-3.12 4.32s2.782 2.021 5.679 3.869c2.886 1.866 5.876 3.557 5.875 3.557zm18.525 8.653l1.855-4.996s-3.089-1.138-6.103-2.463c-3.024-1.301-5.962-2.789-5.962-2.789l-2.389 4.767s3.063 1.554 6.224 2.911c2.102.913 4.227 1.771 6.375 2.57zm19.686 5.537l1.021-5.23s-3.233-.619-6.422-1.438a118.46 118.46 0 0 1-6.333-1.784l-1.587 5.088s3.276 1.038 6.613 1.865c3.331.854 6.708 1.499 6.708 1.499zm20.328 2.252l.153-5.328s-3.29-.088-6.568-.366c-3.278-.269-6.538-.729-6.538-.729l-.734 5.279c.001 0 3.402.482 6.828.763 3.423.291 6.859.381 6.859.381zm20.419-1.072l-.71-5.282s-3.262.451-6.545.697c-3.28.271-6.572.344-6.572.344l.134 5.328s3.438-.074 6.861-.357c3.428-.257 6.832-.73 6.832-.73zm19.981-4.355l-1.552-5.101s-3.147.966-6.348 1.745c-2.131.521-4.275.986-6.432 1.396l.99 5.238c0-.001 3.379-.63 6.714-1.458 3.342-.813 6.628-1.82 6.628-1.82zm19.013-7.508l-2.353-4.783s-2.949 1.463-5.982 2.741c-3.022 1.301-6.121 2.415-6.121 2.415l1.82 5.01s3.231-1.163 6.391-2.521a129.761 129.761 0 0 0 6.245-2.862zm17.556-10.492l-3.097-4.339s-2.676 1.919-5.458 3.677c-2.774 1.771-5.651 3.37-5.651 3.37l2.604 4.65c-.001 0 3.003-1.672 5.902-3.521 2.909-1.833 5.7-3.838 5.7-3.837zm15.619-13.204l-3.764-3.774s-2.322 2.333-4.786 4.516c-2.449 2.198-5.025 4.246-5.025 4.246l3.324 4.166s2.693-2.14 5.251-4.438c2.574-2.28 5-4.716 5-4.716zm13.256-15.571l-4.325-3.112s-1.911 2.681-3.988 5.232c-2.057 2.57-4.269 5.01-4.269 5.01l3.962 3.567s2.31-2.548 4.455-5.231c2.17-2.665 4.165-5.466 4.165-5.466zm10.572-17.5l-4.769-2.383s-1.465 2.949-3.101 5.809c-1.62 2.865-3.403 5.633-3.403 5.633l4.483 2.881c0-.001 1.863-2.889 3.556-5.878a133.774 133.774 0 0 0 3.234-6.062zm7.628-18.97l-5.091-1.579s-.969 3.146-2.12 6.229c-1.142 3.087-2.462 6.103-2.461 6.104l4.888 2.126s1.38-3.147 2.57-6.373a133.17 133.17 0 0 0 2.214-6.507zm4.444-19.966l-5.28-.729c-.001 0-.439 3.264-1.076 6.491-.623 3.231-1.435 6.421-1.435 6.421l5.169 1.306s.848-3.332 1.498-6.707a132.207 132.207 0 0 0 1.124-6.782zm1.134-20.414l-5.329.14s.101 3.29-.01 6.579c-.082 3.29-.366 6.569-.366 6.569l5.312.442s.296-3.426.382-6.859c.113-3.437.011-6.871.011-6.871zm-2.192-20.334l-5.235.998s.624 3.231 1.058 6.496c.447 3.262.699 6.544.699 6.544l5.312-.423s-.265-3.429-.729-6.833c-.31-2.269-.679-4.531-1.105-6.782zm-5.432-19.711l-5.008 1.827a121.895 121.895 0 0 0 3.833 12.589l5.176-1.274s-.811-3.34-1.824-6.624a128.648 128.648 0 0 0-2.177-6.518zm-8.541-18.576l-4.646 2.611c-.001 0 1.617 2.865 3.066 5.821 1.458 2.95 2.742 5.981 2.742 5.981l4.904-2.091c-.001 0-1.341-3.165-2.864-6.246-1.511-3.083-3.202-6.076-3.202-6.076zm-11.435-16.956l-4.161 3.331a120.505 120.505 0 0 0 7.646 10.703l4.501-2.856s-1.833-2.906-3.841-5.695c-1.989-2.808-4.145-5.483-4.145-5.483zm-14.046-14.865l-3.562 3.967s2.455 2.192 4.771 4.529a121.487 121.487 0 0 1 4.517 4.785l3.977-3.551s-2.279-2.573-4.718-4.998c-2.422-2.441-4.987-4.732-4.985-4.732zm-16.276-12.385l-2.874 4.49s2.778 1.768 5.444 3.697a122.462 122.462 0 0 1 5.232 3.986l3.345-4.149c-.001 0-2.67-2.165-5.467-4.163-2.781-2.016-5.68-3.86-5.68-3.861zm-18.042-9.603l-2.119 4.891s3.026 1.297 5.965 2.78c1.963.98 3.899 2.014 5.81 3.096l2.635-4.634s-2.982-1.706-6.062-3.231a125.59 125.59 0 0 0-6.229-2.902zm-19.368-6.577l-1.296 5.171c0 .001 3.196.789 6.336 1.775 3.148.96 6.229 2.117 6.229 2.117l1.854-4.997s-3.219-1.209-6.507-2.213c-3.279-1.03-6.616-1.852-6.616-1.853zm-20.179-3.328l-.437 5.312s3.281.257 6.54.719c3.265.435 6.492 1.072 6.492 1.072l1.016-5.231s-3.372-.667-6.78-1.122c-3.403-.483-6.831-.75-6.831-.75zm-20.448-.002l.434 5.312s3.279-.28 6.57-.354c3.291-.101 6.581.004 6.581.003l.149-5.328s-3.438-.106-6.872-.003c-3.437.078-6.862.37-6.862.37zm-20.179 3.3l1.281 5.174c0 .001 3.192-.8 6.428-1.409 3.23-.625 6.495-1.06 6.495-1.06l-.716-5.282c.001 0-3.405.453-6.779 1.104-2.249.434-4.486.925-6.709 1.473zm-19.386 6.5l2.099 4.9s3.022-1.305 6.12-2.424c3.089-1.139 6.241-2.09 6.241-2.09l-1.557-5.099s-3.291.992-6.516 2.181c-3.23 1.172-6.386 2.532-6.387 2.532zm-17.936 8.284l1.645 5.151s3.09-1.617 6.229-3.132l2.31-1.095 1.933-.889 1.893-.845-2.145-4.881-1.946.867-1.981.912-2.147 1.018a232.331 232.331 0 0 0-5.791 2.894zm-16.862 9.286l.318 5.798 10.146-5.608 2.021-1.106-1.208-5.396-1.875 1.029-9.402 5.283zm-17.219 8.55l-.942 6.031s.82-.251 2.032-.688a56.732 56.732 0 0 0 4.368-1.787c1.562-.71 3.082-1.511 4.229-2.103l1.902-.998.105-5.919-1.772.97c-1.063.576-2.479 1.357-3.938 2.055a52.852 52.852 0 0 1-4.081 1.759c-1.133.431-1.903.68-1.903.68zm-18.987 1.981l-2.204 5.885s3.425.495 6.872.398c3.449-.036 6.846-.647 6.846-.647l1.355-6.025s-3.182.626-6.42.698c-3.235.128-6.449-.309-6.449-.309zm-17.926-6.584l-3.39 5.357c0-.001 2.896 1.896 6.057 3.299 3.134 1.46 6.462 2.404 6.462 2.405l2.608-5.752s-3.123-.867-6.062-2.229c-2.964-1.304-5.675-3.081-5.675-3.08zm-13.608-13.404l-4.372 4.512s.457.731 1.213 1.78a44.067 44.067 0 0 0 2.968 3.693c2.287 2.591 4.96 4.786 4.96 4.786l3.74-5.109s-2.499-2.063-4.629-4.503a41.516 41.516 0 0 1-2.76-3.48c-.699-.99-1.12-1.679-1.12-1.679zm-5.972-18.11l-5.038 3.441s.323 3.426 1.208 6.753c.828 3.342 2.241 6.494 2.241 6.494l4.63-4.18s-1.29-2.978-2.017-6.134c-.781-3.139-1.024-6.374-1.024-6.374zm.202-19.247l-5.36 2.188s-.103 3.467-.144 6.915c-.049 3.449-.026 6.883-.026 6.883l5.181-3.062.136-6.462.213-6.462zm.779-19.234l-5.358.707-.553 13.921 5.386-1.712.525-12.916zm.342-19.683l-5.33.037s.023 3.335-.017 6.676l-.136 6.855 5.338-.213.128-6.581c.042-3.382.017-6.774.017-6.774zm-.862-20.21l-5.312.44c.124 4.434.366 8.862.729 13.284l5.329-.151s-.089-3.396-.28-6.788a255.683 255.683 0 0 0-.466-6.785zm-2.631-20.11l-5.245.952s.597 3.266 1.076 6.548c.488 3.281.855 6.583.855 6.583l5.297-.602s-.376-3.385-.877-6.756a220.277 220.277 0 0 0-1.106-6.725zm-4.671-19.761l-5.116 1.498s.937 3.182 1.75 6.396a185.81 185.81 0 0 1 1.523 6.452l5.209-1.134s-.716-3.334-1.566-6.636c-.839-3.303-1.8-6.576-1.8-6.576zm-6.59-19.144l-4.975 1.918s1.196 3.103 2.327 6.252a184.098 184.098 0 0 1 2.191 6.275l5.062-1.672s-1.063-3.254-2.241-6.424c-1.141-3.177-2.364-6.349-2.364-6.349zm-7.633-18.61l-4.912 2.071 2.604 6.188 2.558 6.188 4.938-2.005-2.577-6.241-2.611-6.201zm-7.447-18.449l-5.001 1.847s1.184 3.188 2.438 6.334a424.18 424.18 0 0 0 2.55 6.261l4.924-2.043s-1.292-3.09-2.521-6.188c-1.233-3.098-2.39-6.211-2.39-6.211zm-4.541-18.715l-5.318.477s.374 3.468 1.082 6.882c.677 3.42 1.66 6.766 1.66 6.766l5.125-1.463s-.913-3.104-1.542-6.276c-.658-3.17-1.006-6.386-1.007-6.386zm.577-19.177l-5.258-1.018s-.64 3.431-.888 6.906c-.288 3.477-.198 6.962-.198 6.962l5.345.018s-.086-3.235.18-6.459c.228-3.227.819-6.409.819-6.409zm6.136-18.176l-4.777-2.427s-1.597 3.102-2.858 6.351c-1.292 3.238-2.226 6.599-2.226 6.599l5.146 1.493s.866-3.118 2.063-6.123c1.172-3.015 2.652-5.893 2.652-5.893zm10.986-15.737l-3.924-3.647s-2.388 2.542-4.51 5.307c-2.123 2.763-3.966 5.723-3.966 5.722l4.535 2.854s1.71-2.746 3.68-5.312c1.972-2.563 4.186-4.924 4.185-4.924zm14.91-12.081l-2.77-4.587s-3.006 1.77-5.804 3.848c-2.816 2.056-5.4 4.396-5.4 4.396l3.575 3.992s2.397-2.175 5.011-4.08c2.598-1.928 5.388-3.569 5.388-3.569zm17.77-7.233l-1.392-5.16s-3.394.812-6.675 1.983c-3.295 1.141-6.446 2.632-6.446 2.632l2.335 4.818s2.926-1.384 5.982-2.438c3.048-1.084 6.196-1.835 6.196-1.835zm19.089-2.015l.097-5.33s-3.486-.085-6.966.143c-3.479.193-6.926.729-6.926.729l.909 5.26s3.197-.49 6.426-.671c3.228-.21 6.46-.13 6.46-.131z"/>
    <circle fill="none" stroke="#07C9C8" stroke-width="4" stroke-miterlimit="10" stroke-dasharray="12" cx="827.807"
            cy="565.531" r="121.749"/>
    <path fill="none" stroke="#60C738" stroke-width="8" stroke-linecap="round" stroke-miterlimit="10"
          d="M549.823 718.348c28.036-27.166 67.123-42.671 109.112-39.508 15.736 1.185 30.677 4.899 44.453 10.72m40.124 25.696c31.079 28.309 49.276 70.116 45.876 115.288-5.868 77.914-73.788 136.319-151.703 130.451-77.915-5.866-136.321-73.787-130.453-151.703a142.533 142.533 0 0 1 3.359-21.858"/>
    <path fill="none" stroke="#F47E14" stroke-width="8" stroke-miterlimit="10"
          d="M401.922 177.426C429.906 79.001 524.018 10.466 630.03 18.45c121.156 9.125 211.979 114.738 202.854 235.896-4.333 57.533-30.425 108.225-69.605 144.623"/>
    <path fill="none" stroke="#F82700" stroke-width="8" stroke-linecap="round" stroke-miterlimit="10"
          d="M431.335 361.169c-21.641-31.914-35.05-69.671-37.443-110.032m303.955 189.924c-30.899 12.851-65.207 18.821-100.861 16.136-20.753-1.562-40.616-5.957-59.24-12.773"/>
    <circle fill="none" stroke="#07C9C8" stroke-width="4.32" stroke-miterlimit="10" stroke-dasharray="12.961"
            cx="182.736" cy="213.426" r="139.468"/>
    <path fill="none" stroke="#0092D7" stroke-width="8" stroke-linecap="round" stroke-miterlimit="10"
          d="M442.113 778.409c-36.957 28.961-84.419 44.747-134.929 40.943-107.429-8.091-187.957-101.737-179.866-209.165 4.535-60.213 35.947-111.975 81.6-144.418m305.741 136.785a195.79 195.79 0 0 1 .69 36.934 196.602 196.602 0 0 1-4.75 30.644m-30.827-158.394a195.11 195.11 0 0 1 25.71 50.046M279.911 434.061c17.819-3.814 36.479-5.176 55.572-3.738 17.542 1.321 34.368 4.924 50.208 10.496"/>
    <g fill="none" stroke="#07C9C8" stroke-width="4" stroke-miterlimit="10">
        <path d="M752.577 448.005l-3.546-4.842"/>
        <path stroke-dasharray="6.2265,6.2265" d="M745.351 438.142l-5.519-7.535"/>
        <path d="M737.99 428.096l-3.546-4.839"/>
    </g>
    <g fill="none" stroke="#07C9C8" stroke-width="4" stroke-miterlimit="10">
        <path d="M694.856 572.571l-5.991.325"/>
        <path stroke-dasharray="11.372,11.372" d="M677.51 573.51l-153.298 8.29"/>
        <path d="M518.533 582.106l-5.992.325"/>
    </g>
    <g fill="none" stroke="#07C9C8" stroke-width="4" stroke-miterlimit="10">
        <path d="M746.625 676.671l-3.737 4.691"/>
        <path stroke-dasharray="7.9437,7.9437" d="M737.939 687.576l-7.423 9.321"/>
        <path d="M728.041 700.006l-3.737 4.691"/>
    </g>
    <path fill="none" stroke="#07C9C8" stroke-width="4" stroke-miterlimit="10" stroke-dasharray="12"
          d="M337.027 213.872h55.707M220.264 361.99l22.554 81.786"/>
    <linearGradient id="a" gradientUnits="userSpaceOnUse" x1="151.183" y1="716.268" x2="151.544" y2="715.91"
                    gradientTransform="matrix(189.3834 0 0 -189.8058 -28038.107 136721.5)">
        <stop offset="0" stop-color="#387eb8"/>
        <stop offset="1" stop-color="#366994"/>
    </linearGradient>
    <path fill="url(#a)"
          d="M649.176 756.99c-35.077 0-32.888 15.212-32.888 15.212l.039 15.757h33.474v4.732h-46.769s-22.442-2.547-22.442 32.845c0 35.394 19.591 34.139 19.591 34.139h11.689V843.25s-.631-19.592 19.276-19.592h33.198s18.649.305 18.649-18.023v-30.306c.004-.001 2.836-18.339-33.817-18.339zm-18.457 10.597a6.015 6.015 0 0 1 6.021 6.013v.008a6.016 6.016 0 0 1-6.011 6.023h-.01a6.017 6.017 0 0 1-6.022-6.014v-.011a6.018 6.018 0 0 1 6.015-6.021c.002.002.005.002.007.002z"/>
    <linearGradient id="b" gradientUnits="userSpaceOnUse" x1="151.057" y1="716.377" x2="151.446" y2="716.009"
                    gradientTransform="matrix(189.3834 0 0 -189.8058 -27972.107 136785.875)">
        <stop offset="0" stop-color="#ffe052"/>
        <stop offset="1" stop-color="#ffc331"/>
    </linearGradient>
    <path fill="url(#b)"
          d="M650.171 894.437c35.073 0 32.886-15.21 32.886-15.21l-.04-15.758h-33.472v-4.732h46.767s22.444 2.547 22.444-32.846c0-35.392-19.593-34.136-19.593-34.136h-11.688v16.424s.631 19.59-19.276 19.59h-33.196s-18.651-.303-18.651 18.026V876.1c-.004 0-2.837 18.337 33.819 18.337zm18.454-10.595a6.018 6.018 0 0 1-6.021-6.013v-.011a6.015 6.015 0 0 1 6.011-6.021h.01a6.014 6.014 0 0 1 6.021 6.011v.01a6.014 6.014 0 0 1-6.021 6.024z"/>
    <path fill="#A4C439"
          d="M513.676 177c-9.603-.009-17.378 7.791-17.378 17.383l.01 72.786c.004 9.617 7.788 17.379 17.385 17.379 9.605 0 17.39-7.769 17.377-17.379v-72.795c-.005-9.589-7.794-17.383-17.394-17.374m140.165-65.359l12.126-22.153a2.432 2.432 0 0 0-.948-3.292c-1.185-.62-2.648-.194-3.271.969l-12.256 22.384c-10.307-4.592-21.851-7.161-34.054-7.148-12.181-.014-23.717 2.55-33.984 7.114l-12.266-22.329a2.396 2.396 0 0 0-3.248-.969l-.014.006c-1.179.636-1.616 2.112-.962 3.271l12.136 22.14c-23.844 12.297-39.95 35.717-39.938 62.596l156.565-.014c.01-26.874-16.084-50.25-39.886-62.575m-74.016 34.232a6.562 6.562 0 0 1-6.44-6.69 6.562 6.562 0 0 1 6.447-6.439c3.632-.008 6.567 2.96 6.569 6.569.007 3.614-2.935 6.554-6.576 6.56m71.292-.013a6.567 6.567 0 0 1-6.565-6.568c.019-3.594 2.943-6.559 6.57-6.569 3.597.005 6.551 2.978 6.551 6.579a6.557 6.557 0 0 1-6.55 6.56c-.002-.002-.004-.002-.006-.002m-113.315 34.427l.03 112.793c-.012 10.264 8.284 18.547 18.545 18.547h12.619l.022 38.521c-.006 9.585 7.789 17.378 17.371 17.378 9.597 0 17.382-7.799 17.382-17.395l-.007-38.504 23.46-.005.014 38.509c0 9.583 7.792 17.395 17.376 17.375 9.599.009 17.388-7.792 17.383-17.392l-.004-38.498 12.672-.017c10.231.011 18.55-8.282 18.556-18.549l-.023-112.796-155.396.033zm196.856 14.07c-.002-9.604-7.778-17.382-17.388-17.378-9.593-.013-17.373 7.784-17.373 17.389l.021 72.785c-.006 9.606 7.768 17.371 17.38 17.376 9.601-.006 17.372-7.77 17.378-17.386l-.018-72.786z"/>
    <path fill="#FEFEFE"
          d="M249.141 158.489l-58.629-34.803a22.096 22.096 0 0 0-22.62 0l-58.629 34.803c-6.996 4.153-11.307 11.829-11.307 20.138v69.603c0 8.308 4.312 15.986 11.31 20.142l58.628 34.796a22.12 22.12 0 0 0 11.31 3.112c3.906 0 7.808-1.035 11.307-3.112l58.629-34.796c6.998-4.155 11.312-11.833 11.312-20.142v-69.603c-.001-8.31-4.315-15.986-11.311-20.138z"/>
    <path fill="#3E474A"
          d="M169.944 299.601l-58.629-34.794c-5.733-3.406-9.296-9.756-9.296-16.578v-69.603c0-6.822 3.562-13.172 9.294-16.576l58.632-34.801a18.156 18.156 0 0 1 9.26-2.552c3.245 0 6.446.883 9.26 2.552l58.629 34.801c4.832 2.87 8.09 7.835 9.008 13.407-1.945-4.15-6.33-5.278-11.439-2.293l-55.467 34.259c-6.916 4.043-12.015 8.58-12.02 16.919v68.345c-.004 4.992 2.014 8.228 5.11 9.167-1.019.176-2.043.298-3.081.298a18.15 18.15 0 0 1-9.261-2.551m79.197-141.113l-58.629-34.801a22.12 22.12 0 0 0-11.309-3.116 22.128 22.128 0 0 0-11.312 3.116l-58.629 34.801c-6.996 4.153-11.307 11.831-11.307 20.14v69.603c0 8.306 4.312 15.986 11.309 20.14l58.629 34.798a22.149 22.149 0 0 0 11.31 3.115c3.906 0 7.808-1.04 11.307-3.115l58.631-34.798c6.998-4.153 11.311-11.834 11.311-20.14v-69.603c-.001-8.31-4.313-15.988-11.311-20.14"/>
    <path fill="#47B353"
          d="M233.773 254.958l-14.599 8.736c-.388.227-.672.48-.674.943v3.821c0 .466.312.661.7.434l14.824-9.009c.388-.226.446-.658.448-1.124v-3.369c0-.464-.312-.658-.699-.432"/>
    <path fill="#FEFEFE"
          d="M202.684 222.802c.474-.24.863.056.869.673l.049 5.05c2.114-.842 3.952-1.064 5.616-.682.36.096.52.588.372 1.171l-1.112 4.475c-.085.341-.274.681-.506.895a1.203 1.203 0 0 1-.293.218.658.658 0 0 1-.438.072c-.76-.172-2.564-.568-5.407.872-2.98 1.508-4.023 4.099-4.002 6.02.023 2.295 1.202 2.991 5.268 3.062 5.417.09 7.757 2.455 7.814 7.913.056 5.357-2.805 11.109-7.18 14.635l.097 5c.006.601-.386 1.291-.858 1.531l-2.959 1.705c-.475.239-.865-.057-.871-.658l-.051-4.917c-2.536 1.054-5.106 1.308-6.748.647-.309-.12-.442-.575-.32-1.096l1.074-4.521c.086-.356.274-.713.53-.94.09-.088.184-.156.279-.202.17-.085.335-.105.477-.05 1.768.596 4.03.316 6.207-.786 2.764-1.396 4.613-4.216 4.584-7.02-.027-2.539-1.403-3.596-4.749-3.619-4.257.012-8.227-.828-8.293-7.099-.053-5.162 2.631-10.532 6.878-13.927l-.053-5.046c-.006-.62.373-1.304.859-1.547l2.867-1.829z"/>
    <path fill="#FFCD09"
          d="M322.204 502.987c-64.018 0-115.912 51.896-115.912 115.912S258.188 734.81 322.204 734.81s115.911-51.896 115.911-115.911c0-64.016-51.895-115.912-115.911-115.912zm-12.329 135.878c-.013 4.942-.324 9.986-1.345 14.807-3.019 14.257-13.955 23.407-28.577 24.771-8.139.76-16.028.109-23.594-3.087-8.586-3.628-14.393-10.085-18.596-18.498 6.565-4.021 13.009-7.965 19.538-11.962 1.323 2.045 2.479 3.908 3.71 5.72 3.73 5.487 9.017 7.317 15.391 6.342 5.127-.784 8.559-4.686 8.835-10.219.271-5.387.4-10.784.412-16.178.048-22.591.027-45.183.037-67.774 0-.628.06-1.256.099-2.06h23.82c.04.762.112 1.515.114 2.268.077 25.291.218 50.581.156 75.87zm76.716 35.82c-17.444 7.04-34.554 5.392-50.459-4.862-5.857-3.776-10.085-9.275-13.498-15.717 6.672-3.848 13.053-7.528 19.533-11.267 1.225 1.64 2.331 3.192 3.509 4.688 6.807 8.646 17.228 11.885 27.653 8.621 6.938-2.172 10.147-7.669 8.32-14.266-.744-2.688-2.508-4.684-4.805-6.023-3.484-2.034-7.063-3.942-10.742-5.594-7.833-3.515-15.87-6.593-22.874-11.729-9.997-7.331-14.207-17.494-13.31-29.486 1.104-14.79 9.55-24.895 23.941-28.556 12.02-3.059 23.857-2.227 34.465 5.185 4.116 2.876 8.633 8.367 10.772 12.729l-18.535 11.911c-.578-.9-1.09-1.718-1.618-2.522-4.223-6.45-11.508-9.242-18.277-7.01-7.294 2.407-9.778 11.732-4.217 17.07 2.541 2.438 5.888 4.167 9.101 5.746 6.045 2.973 12.352 5.416 18.376 8.427 6.662 3.332 12.708 7.602 16.967 13.897 11.659 17.232 4.944 40.99-14.302 48.758z"/>
    <linearGradient id="c" gradientUnits="userSpaceOnUse" x1="166.268" y1="2.857" x2="166.268" y2="6.759"
                    gradientTransform="matrix(39.6201 0 0 35.5033 -5764.64 388.865)">
        <stop offset="0" stop-color="#f88a36"/>
        <stop offset="1" stop-color="#fd2020"/>
    </linearGradient>
    <path fill="url(#c)"
          d="M862.213 619.253c-18.213 10.521-43.254 11.601-68.447.804-20.396-8.677-37.323-23.867-48.173-41.229 5.21 4.341 11.283 7.812 17.793 10.854 26.021 12.194 52.03 11.355 70.338.031l-.031-.031c-26.04-19.97-48.173-46.005-64.663-67.271-3.471-3.475-6.078-7.812-8.681-11.721 19.965 18.23 51.647 41.229 62.929 47.742-23.867-25.175-45.136-56.42-44.268-55.555 37.758 38.191 72.914 59.896 72.914 59.896 1.162.655 2.058 1.2 2.781 1.688a56.07 56.07 0 0 0 1.989-6.029c6.078-22.134-.865-47.31-16.059-68.139 35.153 21.265 55.987 61.193 47.308 94.612a58.299 58.299 0 0 1-.739 2.663c.101.122.205.247.306.373 17.354 21.703 12.584 44.702 10.415 40.365-9.417-18.428-26.849-12.788-35.712-9.053z"/>
</svg>