<?xml version="1.0" encoding="UTF-8"?>
<!DOCTYPE svg PUBLIC "-//W3C//DTD SVG 1.1//EN" "http://www.w3.org/Graphics/SVG/1.1/DTD/svg11.dtd">
<svg version="1.1" xmlns="http://www.w3.org/2000/svg" xmlns:xlink="http://www.w3.org/1999/xlink" x="0" y="0" width="285" height="161" viewBox="0, 0, 285, 161">
  <g id="Layer_1">
    <path d="M70.401,25.226 C68.858,67.373 58.263,97.564 38.913,113.951 L38.913,113.951 C35.297,117.013 31.627,119.356 28.067,121.161 L28.067,121.161 C28.051,121.168 28.038,121.177 28.022,121.183 L28.022,121.183 C13.923,128.314 1.589,126.865 1.435,126.847 L1.435,126.847 C0.738,126.752 0.101,127.243 0.011,127.941 L0.011,127.941 C-0.014,128.126 0.007,128.303 0.057,128.47 L0.057,128.47 C0.036,128.563 0,128.651 0,128.75 L0,128.75 C0,129.45 0.569,130.021 1.271,130.021 L1.271,130.021 L70.398,130.021 L70.398,161 L70.399,161 L72.943,161 L72.943,130.021 L211.257,130.021 L211.257,161 L213.801,161 L213.801,130.021 L277.363,130.021 C281.171,130.281 283.598,130.017 283.881,129.984 L283.881,129.984 C284.579,129.9 285.074,129.269 284.991,128.573 L284.991,128.573 C284.908,127.877 284.282,127.388 283.58,127.461 L283.58,127.461 C283.562,127.463 283.382,127.482 283.067,127.504 L283.067,127.504 C283.018,127.498 282.976,127.476 282.926,127.476 L282.926,127.476 L278.036,127.476 C270.848,127.021 257.761,124.6 245.36,113.988 L245.36,113.988 C225.953,97.379 215.333,67.173 213.798,25.226 L213.798,25.226 C213.796,25.162 213.768,25.108 213.756,25.047 L213.756,25.047 C213.739,24.956 213.73,24.864 213.694,24.781 L213.694,24.781 C213.664,24.709 213.615,24.651 213.572,24.586 L213.572,24.586 C213.526,24.516 213.488,24.443 213.429,24.384 L213.429,24.384 C213.373,24.328 213.304,24.291 213.239,24.245 L213.239,24.245 C213.172,24.198 213.111,24.145 213.035,24.112 L213.035,24.112 C212.958,24.079 212.873,24.071 212.79,24.053 L212.79,24.053 C212.718,24.037 212.652,24.004 212.575,24.001 L212.575,24.001 C212.566,24.001 212.558,24.005 212.549,24.005 L212.549,24.005 C212.541,24.005 212.535,24.001 212.528,24.001 L212.528,24.001 L212.507,24.001 C212.432,24.002 212.367,24.033 212.297,24.047 L212.297,24.047 C212.208,24.063 212.118,24.07 212.038,24.103 L212.038,24.103 C211.987,24.124 211.949,24.16 211.902,24.187 L211.902,24.187 C211.805,24.242 211.71,24.296 211.631,24.374 L211.631,24.374 C211.603,24.403 211.587,24.44 211.561,24.472 L211.561,24.472 C211.486,24.564 211.413,24.657 211.365,24.768 L211.365,24.768 C211.341,24.824 211.339,24.888 211.322,24.948 L211.322,24.948 C211.298,25.04 211.26,25.126 211.257,25.225 L211.257,25.225 C209.71,67.485 199.113,97.786 179.766,114.273 L179.766,114.273 C170.184,122.437 160.201,125.648 152.979,126.871 L152.979,126.871 C152.151,127.029 151.175,127.168 150.09,127.277 L150.09,127.277 C149.279,127.369 148.539,127.429 147.838,127.476 L147.838,127.476 L138.771,127.476 C138.565,127.463 138.354,127.453 138.153,127.439 L138.153,127.439 C130.96,127.051 117.147,124.691 104.092,113.383 L104.092,113.383 C84.932,96.788 74.452,70.508 72.946,29.344 L72.946,29.344 C72.946,29.336 72.945,29.323 72.944,29.315 L72.944,29.315 L72.944,25.273 C72.944,24.579 72.388,24.014 71.695,24.002 L71.695,24.002 C71.676,24.001 71.656,24 71.637,24 L71.637,24 C70.951,24 70.425,24.553 70.401,25.226 M207.04,72.477 C208.767,66.39 210.173,59.856 211.258,52.889 L211.258,52.889 L211.258,127.476 L207.04,127.476 z M213.802,53.208 C215.021,60.931 216.658,68.086 218.685,74.705 L218.685,74.705 C218.671,74.778 218.641,74.844 218.641,74.921 L218.641,74.921 L218.641,127.476 L213.802,127.476 z M65.994,73.463 C65.994,73.438 65.981,73.416 65.979,73.391 L65.979,73.391 C67.797,67.181 69.271,60.488 70.398,53.315 L70.398,53.315 L70.398,127.476 L65.994,127.476 z M72.944,53.495 L72.945,53.495 L72.945,53.506 C73.907,59.544 75.121,65.246 76.589,70.604 L76.589,70.604 C76.588,70.621 76.58,70.634 76.58,70.651 L76.58,70.651 L76.58,127.476 L72.945,127.476 L72.945,53.506 C72.945,53.502 72.944,53.498 72.944,53.495 M79.122,78.802 C80.345,82.33 81.691,85.689 83.164,88.875 L83.164,88.875 L83.164,127.476 L79.122,127.476 z M201.066,89.037 C202.296,86.313 203.441,83.466 204.497,80.492 L204.497,80.492 L204.497,127.475 L201.066,127.475 z M59.98,89.493 C61.225,86.809 62.38,84 63.449,81.066 L63.449,81.066 L63.449,127.475 L59.98,127.475 z M221.186,82.111 C222.138,84.633 223.167,87.048 224.252,89.383 L224.252,89.383 L224.252,127.476 L221.186,127.476 z M85.707,93.973 C86.684,95.79 87.706,97.543 88.774,99.234 L88.774,99.234 L88.774,127.476 L85.707,127.476 z M195.457,99.993 C195.457,99.889 195.422,99.797 195.4,99.699 L195.4,99.699 C196.487,97.951 197.529,96.138 198.521,94.253 L198.521,94.253 L198.521,127.476 L195.457,127.476 z M226.794,94.484 C227.772,96.296 228.804,98.028 229.871,99.712 L229.871,99.712 C229.87,99.733 229.859,99.751 229.859,99.773 L229.859,99.773 L229.859,127.476 L226.794,127.476 z M54.368,100.179 C54.368,100.078 54.333,99.989 54.311,99.895 L54.311,99.895 C55.395,98.193 56.444,96.439 57.435,94.601 L57.435,94.601 L57.435,127.475 L54.368,127.475 z M91.317,103.017 C92.321,104.421 93.36,105.775 94.435,107.079 L94.435,107.079 C94.417,107.164 94.384,107.243 94.384,107.334 L94.384,107.334 L94.384,127.476 L91.317,127.476 z M189.846,107.532 C190.903,106.23 191.924,104.877 192.912,103.471 L192.912,103.471 L192.912,127.476 L189.846,127.476 z M232.404,103.475 C233.395,104.858 234.411,106.206 235.47,107.492 L235.47,107.492 L235.47,127.476 L232.404,127.476 z M48.76,107.569 C49.82,106.292 50.834,104.95 51.825,103.572 L51.825,103.572 L51.825,127.476 L48.76,127.476 z M96.926,109.95 C97.919,111.032 98.944,112.07 99.992,113.074 L99.992,113.074 L99.992,127.475 L96.926,127.475 z M238.014,110.409 C239.01,111.489 240.031,112.534 241.082,113.536 L241.082,113.536 C241.082,113.54 241.08,113.542 241.08,113.546 L241.08,113.546 L241.08,127.476 L238.014,127.476 z M43.15,113.563 C44.2,112.571 45.222,111.538 46.217,110.466 L46.217,110.466 L46.217,127.476 L43.15,127.476 z M184.239,113.633 C185.286,112.626 186.308,111.577 187.301,110.485 L187.301,110.485 L187.301,127.475 L184.239,127.475 z M102.536,115.397 C103.566,116.286 104.601,117.116 105.638,117.901 L105.638,117.901 C105.629,117.961 105.602,118.015 105.602,118.078 L105.602,118.078 L105.602,127.475 L102.536,127.475 z M243.624,115.837 C243.671,115.878 243.716,115.923 243.763,115.963 L243.763,115.963 C244.735,116.794 245.711,117.565 246.688,118.304 L246.688,118.304 L246.688,127.476 L243.624,127.476 z M37.542,118.277 C38.53,117.54 39.52,116.768 40.506,115.935 L40.506,115.935 C40.54,115.906 40.573,115.873 40.607,115.844 L40.607,115.844 L40.607,127.476 L37.542,127.476 z M178.627,118.447 C179.539,117.756 180.452,117.025 181.363,116.251 L181.363,116.251 C181.474,116.156 181.582,116.055 181.693,115.959 L181.693,115.959 L181.693,127.476 L178.627,127.476 z M108.144,119.705 C109.441,120.588 110.737,121.39 112.024,122.128 L112.024,122.128 C112.012,122.198 111.982,122.263 111.982,122.337 L111.982,122.337 L111.982,127.476 L108.144,127.476 z M29.816,123.159 C31.524,122.261 33.256,121.237 34.998,120.076 L34.998,120.076 L34.998,127.475 L29.816,127.475 z M249.232,120.138 C250.504,121.001 251.771,121.787 253.027,122.51 L253.027,122.51 L253.027,127.476 L249.232,127.476 z M171.514,123.07 C173.024,122.238 174.549,121.31 176.083,120.27 L176.083,120.27 L176.083,127.476 L171.514,127.476 z M114.526,123.485 C117.961,125.243 121.302,126.535 124.422,127.475 L124.422,127.475 L114.526,127.475 z M255.573,123.888 C258.576,125.423 261.496,126.593 264.25,127.476 L264.25,127.476 L255.573,127.476 z M168.971,124.392 L168.971,127.476 L161.256,127.476 C163.71,126.7 166.302,125.694 168.971,124.392 M27.274,124.411 L27.274,127.476 L19.046,127.476 C21.644,126.736 24.411,125.739 27.274,124.411" fill="#6A6A6A"/>
  </g>
</svg>
